<?xml version="1.0" standalone="no"?>
<!DOCTYPE svg PUBLIC "-//W3C//DTD SVG 20010904//EN"
 "http://www.w3.org/TR/2001/REC-SVG-20010904/DTD/svg10.dtd">
<svg version="1.0" xmlns="http://www.w3.org/2000/svg"
 width="128" height="25" viewBox="0 0 322.000000 90.000000"
 preserveAspectRatio="xMidYMid meet">

<g transform="translate(0.000000,90.000000) scale(0.100000,-0.100000)"
fill="#000000" stroke="none">
<path d="M1110 762 c-19 -9 -42 -31 -50 -48 l-15 -32 -106 -4 c-84 -3 -111 -8
-132 -24 -30 -22 -57 -71 -57 -106 -1 -41 -32 -70 -82 -75 -44 -5 -47 -4 -62
25 -23 45 -67 72 -116 72 -54 0 -93 -21 -120 -65 -18 -30 -27 -35 -59 -35 -32
0 -39 5 -56 36 -24 44 -61 64 -121 64 -39 0 -51 -5 -79 -33 -44 -44 -55 -98
-29 -146 28 -51 68 -76 118 -75 50 1 88 24 115 70 17 28 26 34 54 34 29 0 39
-6 61 -41 61 -92 181 -86 231 12 13 23 22 29 50 29 46 0 84 -34 96 -88 5 -24
17 -55 26 -69 18 -28 68 -53 105 -53 16 0 27 -9 37 -31 18 -40 66 -69 116 -69
78 1 125 51 125 134 0 41 -5 53 -33 81 -62 62 -156 52 -202 -22 -16 -25 -27
-32 -53 -33 -26 0 -36 6 -52 33 -11 17 -20 44 -20 58 0 15 -9 38 -21 53 l-21
26 21 34 c12 18 21 45 21 59 0 14 12 39 26 56 26 31 27 31 123 31 l97 0 11
-29 c13 -36 51 -61 101 -68 104 -14 178 103 122 194 -36 60 -104 78 -170 45z
m119 -68 c25 -32 26 -52 5 -82 -24 -35 -59 -45 -93 -27 -44 22 -55 71 -25 113
23 33 86 31 113 -4z m-1035 -200 c33 -33 33 -68 1 -99 -30 -30 -64 -32 -99 -4
-36 28 -36 80 0 108 36 28 66 26 98 -5z m340 1 c15 -14 26 -35 26 -50 0 -33
-42 -75 -75 -75 -33 0 -75 42 -75 75 0 31 44 75 75 75 12 0 34 -11 49 -25z
m553 -207 c40 -37 27 -96 -26 -117 -24 -10 -34 -10 -59 3 -48 25 -57 74 -20
113 28 30 74 30 105 1z"/>
<path d="M2510 599 l0 -51 -62 4 c-35 3 -71 8 -80 13 -17 7 -18 -2 -18 -99 0
-85 3 -106 14 -106 25 0 46 12 46 26 0 10 14 14 50 14 l50 0 0 -91 c0 -79 2
-90 16 -85 9 3 20 6 25 6 5 0 9 38 9 85 l0 85 55 0 c49 0 55 -2 55 -21 0 -15
4 -19 16 -15 9 3 20 6 25 6 5 0 9 33 9 73 0 40 5 78 11 84 7 7 2 17 -17 32
-25 20 -30 21 -40 7 -8 -11 -28 -16 -63 -16 l-51 0 0 40 c0 25 5 40 13 41 17
1 -24 17 -45 18 -15 1 -18 -8 -18 -50z m0 -124 l0 -55 -50 0 -50 0 0 55 0 55
50 0 50 0 0 -55z m160 0 l0 -55 -55 0 -55 0 0 55 0 55 55 0 55 0 0 -55z"/>
<path d="M2800 430 l0 -211 23 7 c12 3 26 13 30 20 6 11 39 14 142 14 116 0
135 -2 135 -16 0 -10 7 -14 23 -12 22 3 22 5 25 183 2 117 6 181 14 186 7 4 1
13 -16 24 -20 14 -29 15 -40 6 -17 -14 -290 -11 -318 3 -17 8 -18 -5 -18 -204z
m328 8 l-3 -163 -135 0 -135 0 -3 163 -2 162 140 0 140 0 -2 -162z"/>
<path d="M3054 565 c-5 -12 -25 -15 -96 -15 -57 0 -87 -4 -83 -10 3 -5 24 -10
46 -10 39 0 39 0 39 -39 0 -39 -1 -40 -37 -44 l-38 -4 38 -1 37 -2 0 -50 0
-50 -45 0 c-25 0 -45 -4 -45 -10 0 -6 48 -10 125 -10 79 0 125 4 125 10 0 6
-7 13 -15 16 -8 4 -15 17 -15 30 0 20 -32 54 -52 54 -4 0 0 -16 8 -35 19 -47
18 -55 -11 -55 -23 0 -25 3 -25 50 l0 50 47 0 47 0 -22 23 c-22 21 -24 21 -36
5 -22 -30 -36 -21 -36 22 l0 40 50 0 c54 0 61 7 32 33 -23 21 -31 21 -38 2z"/>
<path d="M1808 595 c-56 -31 -63 -87 -18 -138 l30 -35 -25 -16 c-54 -35 -53
-110 1 -135 31 -14 109 -14 135 -1 29 16 51 67 44 100 -4 16 -20 41 -36 54
l-29 25 25 25 c30 30 33 74 7 106 -23 29 -96 37 -134 15z m90 -17 c18 -18 15
-93 -3 -108 -39 -32 -98 65 -64 106 14 17 51 18 67 2z m-5 -196 c46 -48 30
-104 -30 -104 -32 0 -53 25 -53 65 0 68 38 86 83 39z"/>
<path d="M1593 512 c-12 -2 -27 -10 -33 -18 -16 -18 -30 -18 -30 1 0 18 -23
18 -70 0 -33 -13 -33 -14 -12 -21 21 -6 22 -12 22 -100 0 -77 -3 -94 -15 -94
-8 0 -15 -4 -15 -10 0 -6 27 -10 60 -10 57 0 78 11 45 24 -13 5 -15 21 -13 88
3 78 4 83 30 98 49 27 63 7 66 -94 3 -81 1 -88 -17 -93 -12 -3 -18 -9 -15 -14
7 -12 124 -11 124 1 0 6 -7 10 -15 10 -12 0 -15 16 -15 88 0 49 -6 98 -13 111
-13 26 -47 39 -84 33z"/>
<path d="M2163 508 c-18 -4 -35 -13 -38 -19 -4 -6 -12 -4 -20 7 -11 16 -17 16
-54 6 -43 -13 -55 -32 -21 -32 19 0 20 -7 20 -95 0 -78 -3 -95 -15 -95 -8 0
-15 -4 -15 -10 0 -6 27 -10 60 -10 33 0 60 4 60 10 0 6 -7 10 -15 10 -12 0
-15 16 -15 88 0 83 2 89 24 101 13 7 32 11 42 9 17 -3 19 -14 22 -101 2 -82 0
-97 -13 -97 -8 0 -15 -4 -15 -10 0 -6 27 -10 60 -10 33 0 60 4 60 10 0 6 -4
10 -10 10 -6 0 -10 33 -10 79 0 43 -5 92 -11 109 -13 37 -50 52 -96 40z"/>
</g>
</svg>
